<?xml version="1.0" standalone="no"?>
<!DOCTYPE svg PUBLIC "-//W3C//DTD SVG 20010904//EN"
 "http://www.w3.org/TR/2001/REC-SVG-20010904/DTD/svg10.dtd">
<svg version="1.0" xmlns="http://www.w3.org/2000/svg"
 width="128.000000pt" height="128.000000pt" viewBox="0 0 128.000000 128.000000"
 preserveAspectRatio="xMidYMid meet">

<g transform="translate(0.000000,128.000000) scale(0.100000,-0.100000)"
fill="#000000" stroke="none">
<path d="M426 1120 c-94 -37 -139 -105 -139 -210 0 -102 42 -167 133 -207 22
-10 82 -18 161 -22 118 -6 128 -8 162 -34 93 -71 90 -190 -6 -261 -26 -19 -44
-21 -238 -24 l-209 -3 0 -105 0 -106 233 4 c209 4 237 6 287 26 110 44 169
117 196 243 29 139 -2 282 -79 362 -71 72 -121 90 -272 97 -132 5 -155 11
-155 35 0 19 23 25 96 25 l64 0 0 100 0 100 -92 0 c-67 -1 -107 -6 -142 -20z"/>
</g>
</svg>
